STARTFONT 2.1
FONT -Adobe-ITC Zapf Chancery-Medium-I-Normal--33-240-100-100-P-152-ISO8859-1
SIZE 24 100 100
FONTBOUNDINGBOX 39 34 -4 -7

STARTPROPERTIES 26
_DEC_DEVICE_FONTNAMES "PS=ZapfChancery-MediumItalic"
FONTNAME_REGISTRY ""
FAMILY_NAME "ITC Zapf Chancery"
FOUNDRY "Adobe"
WEIGHT_NAME "Medium"
SLANT "I"
SETWIDTH_NAME "Normal"
ADD_STYLE_NAME ""
PIXEL_SIZE 33
POINT_SIZE 240
RESOLUTION_X 100
RESOLUTION_Y 100
SPACING "P"
AVERAGE_WIDTH 152
CHARSET_REGISTRY "ISO8859"
CHARSET_ENCODING "1"
CHARSET_COLLECTIONS "ASCII ISO8859-1 ADOBE-STANDARD"
FULL_NAME "ITC Zapf Chancery Medium Italic"
COPYRIGHT "Copyright (c) 1991 Adobe Systems, Inc."
CAP_HEIGHT 20
X_HEIGHT 19
WEIGHT 10
QUAD_WIDTH 17
DEFAULT_CHAR 0
FONT_DESCENT 7
FONT_ASCENT 27
ENDPROPERTIES

CHARS 190

STARTCHAR space
ENCODING 32
SWIDTH 220 0
DWIDTH 7 0
BBX 1 1 0 0
BITMAP
00
ENDCHAR

STARTCHAR exclam
ENCODING 33
SWIDTH 280 0
DWIDTH 9 0
BBX 8 19 4 1
BITMAP
03
06
06
0E
0E
0C
0C
1C
18
18
18
30
30
20
00
00
60
F0
60
ENDCHAR

STARTCHAR quotedbl
ENCODING 34
SWIDTH 220 0
DWIDTH 7 0
BBX 5 6 5 17
BITMAP
28
68
48
58
D0
F0
ENDCHAR

STARTCHAR numbersign
ENCODING 35
SWIDTH 440 0
DWIDTH 15 0
BBX 16 19 3 0
BITMAP
0186
0186
018C
038C
030C
3FFF
3FF8
0618
0630
0630
0C30
FFFE
FFE0
1C60
18E0
18C0
38C0
31C0
0180
ENDCHAR

STARTCHAR dollar
ENCODING 36
SWIDTH 440 0
DWIDTH 14 0
BBX 12 27 3 -4
BITMAP
00C0
0080
0080
03F0
07F0
0F20
0D00
0900
1900
1B00
1F00
1E00
0E00
0F80
07C0
07C0
04C0
04C0
0480
0D80
0B00
FE00
F800
0800
1800
1000
1000
ENDCHAR

STARTCHAR percent
ENCODING 37
SWIDTH 680 0
DWIDTH 22 0
BBX 18 20 5 0
BITMAP
1F0200
1B8600
318600
618C00
618800
619800
C19000
C13000
C32780
C36FC0
C6D8C0
EED8C0
7DB0C0
0130C0
0330C0
063080
043180
0C3100
183700
181E00
ENDCHAR

STARTCHAR ampersand
ENCODING 38
SWIDTH 780 0
DWIDTH 26 0
BBX 25 18 4 0
BITMAP
00060000
00060000
00060080
000C0180
07B80100
1FF7FF00
19EFFE00
338C6000
6E186000
7810E000
7030C000
6030C000
E0018000
E0030000
F0060000
781C0000
3FF00000
1F800000
ENDCHAR

STARTCHAR quoteright
ENCODING 39
SWIDTH 240 0
DWIDTH 8 0
BBX 4 7 8 16
BITMAP
10
30
30
30
60
C0
C0
ENDCHAR

STARTCHAR parenleft
ENCODING 40
SWIDTH 260 0
DWIDTH 9 0
BBX 10 28 4 -6
BITMAP
00C0
0180
0300
0300
0600
0400
0C00
0800
1800
1000
3000
3000
2000
6000
6000
6000
C000
C000
C000
C000
C000
C000
C000
C000
E000
E000
6000
6000
ENDCHAR

STARTCHAR parenright
ENCODING 41
SWIDTH 220 0
DWIDTH 7 0
BBX 10 28 0 -6
BITMAP
0180
0180
01C0
01C0
00C0
00C0
00C0
00C0
00C0
00C0
00C0
00C0
0180
0180
0180
0100
0300
0300
0200
0600
0400
0C00
0800
1800
3000
3000
6000
C000
ENDCHAR

STARTCHAR asterisk
ENCODING 42
SWIDTH 420 0
DWIDTH 14 0
BBX 9 10 7 14
BITMAP
0600
0400
2480
3780
1E00
3E00
FF00
9B00
1800
1000
ENDCHAR

STARTCHAR plus
ENCODING 43
SWIDTH 520 0
DWIDTH 17 0
BBX 14 14 3 0
BITMAP
0300
0300
0300
0300
0300
0300
FFFC
FFFC
0300
0300
0300
0300
0300
0300
ENDCHAR

STARTCHAR comma
ENCODING 44
SWIDTH 220 0
DWIDTH 7 0
BBX 6 9 1 -3
BITMAP
0C
0C
1C
18
18
30
30
60
C0
ENDCHAR

STARTCHAR minus
ENCODING 45
SWIDTH 520 0
DWIDTH 17 0
BBX 17 2 2 6
BITMAP
FFFF80
FFFF80
ENDCHAR

STARTCHAR period
ENCODING 46
SWIDTH 220 0
DWIDTH 7 0
BBX 4 3 4 1
BITMAP
60
F0
60
ENDCHAR

STARTCHAR slash
ENCODING 47
SWIDTH 340 0
DWIDTH 11 0
BBX 18 28 0 -5
BITMAP
0000C0
000080
000180
000300
000200
000600
000400
000C00
001800
001000
003000
002000
006000
00C000
00C000
018000
010000
030000
020000
060000
0C0000
080000
180000
300000
300000
600000
400000
C00000
ENDCHAR

STARTCHAR zero
ENCODING 48
SWIDTH 440 0
DWIDTH 14 0
BBX 13 20 3 0
BITMAP
03E0
06F0
0C70
1838
1838
3038
3038
7038
7038
6030
6030
E030
E070
E060
E060
E0E0
E0C0
7180
7B00
3E00
ENDCHAR

STARTCHAR one
ENCODING 49
SWIDTH 440 0
DWIDTH 14 0
BBX 11 19 3 0
BITMAP
0060
03E0
0FE0
08C0
00C0
01C0
01C0
0180
0180
0380
0380
0380
0300
0300
0700
0700
0700
3FE0
FFE0
ENDCHAR

STARTCHAR two
ENCODING 50
SWIDTH 440 0
DWIDTH 14 0
BBX 15 21 1 -1
BITMAP
01F8
03BC
061E
0C0E
0C0E
0C0E
000C
001C
0018
0030
0060
00C0
0180
0700
0E00
1C06
3806
3FCC
7FF8
C3F0
8000
ENDCHAR

STARTCHAR three
ENCODING 51
SWIDTH 440 0
DWIDTH 14 0
BBX 13 20 2 0
BITMAP
00F0
03F8
0678
0038
0030
0030
0060
01C0
07E0
0FF0
0878
0038
0038
0030
0030
0020
0060
00C0
F380
FE00
ENDCHAR

STARTCHAR four
ENCODING 52
SWIDTH 440 0
DWIDTH 14 0
BBX 13 20 2 -1
BITMAP
0018
0038
0078
00F8
01F8
03B0
0730
0670
0C70
1860
3060
6060
FFF8
FFF8
00C0
00C0
01C0
01C0
01C0
0180
ENDCHAR

STARTCHAR five
ENCODING 53
SWIDTH 440 0
DWIDTH 14 0
BBX 16 22 2 0
BITMAP
0001
0003
03FE
03FC
03F8
0600
0600
0400
0C00
0C00
0FC0
1FE0
10F0
0070
0030
0030
0070
0060
00C0
0380
FF00
7800
ENDCHAR

STARTCHAR six
ENCODING 54
SWIDTH 440 0
DWIDTH 14 0
BBX 14 20 3 0
BITMAP
007C
01CC
0300
0600
0C00
1800
1800
3000
3000
73C0
6FE0
78F0
F070
E030
E030
E030
E060
70C0
7BC0
3F00
ENDCHAR

STARTCHAR seven
ENCODING 55
SWIDTH 440 0
DWIDTH 14 0
BBX 12 20 5 0
BITMAP
2000
2000
7FF0
7FF0
0060
00C0
01C0
0180
0300
0600
0C00
0C00
1800
3000
3000
6000
E000
E000
E000
E000
ENDCHAR

STARTCHAR eight
ENCODING 56
SWIDTH 440 0
DWIDTH 14 0
BBX 14 20 3 0
BITMAP
01F8
03B8
061C
0E1C
0C18
0C18
0E30
0E60
0FC0
0780
0FC0
1DE0
30F0
6070
E070
E070
E060
E0C0
F380
7F00
ENDCHAR

STARTCHAR nine
ENCODING 57
SWIDTH 440 0
DWIDTH 14 0
BBX 14 20 2 0
BITMAP
0070
03F8
063C
0C1C
181C
180C
380C
380C
383C
3C7C
1FDC
0F18
0018
0038
0030
0060
00C0
01C0
F780
FE00
ENDCHAR

STARTCHAR colon
ENCODING 58
SWIDTH 260 0
DWIDTH 8 0
BBX 6 12 3 1
BITMAP
18
3C
18
00
00
00
00
00
00
60
F0
60
ENDCHAR

STARTCHAR semicolon
ENCODING 59
SWIDTH 240 0
DWIDTH 8 0
BBX 8 16 1 -3
BITMAP
07
07
07
00
00
00
00
0C
0C
1C
18
18
30
30
60
C0
ENDCHAR

STARTCHAR less
ENCODING 60
SWIDTH 520 0
DWIDTH 17 0
BBX 14 14 4 0
BITMAP
0004
001C
0078
03C0
0F00
3C00
E000
E000
7800
1E00
0780
01E0
0078
001C
ENDCHAR

STARTCHAR equal
ENCODING 61
SWIDTH 520 0
DWIDTH 17 0
BBX 14 6 3 4
BITMAP
FFFC
FFFC
0000
0000
FFFC
FFFC
ENDCHAR

STARTCHAR greater
ENCODING 62
SWIDTH 520 0
DWIDTH 17 0
BBX 15 14 4 0
BITMAP
8000
E000
7C00
0F00
03E0
0078
001E
000E
003C
01F0
0780
1E00
7800
E000
ENDCHAR

STARTCHAR question
ENCODING 63
SWIDTH 380 0
DWIDTH 12 0
BBX 13 19 4 1
BITMAP
07E0
0E70
1838
0038
0038
0070
0070
01E0
1FC0
3E00
3000
3000
2000
2000
0000
0000
6000
F000
6000
ENDCHAR

STARTCHAR at
ENCODING 64
SWIDTH 700 0
DWIDTH 23 0
BBX 21 23 4 0
BITMAP
01FE00
07CF80
0E01C0
180060
300030
600010
607B18
C1DF08
C38F08
870708
8E0608
8E0618
8E0618
8C0E10
CC1C30
CE3C60
667DC0
63E798
300030
180060
0E00C0
07C780
01FE00
ENDCHAR

STARTCHAR A
ENCODING 65
SWIDTH 620 0
DWIDTH 20 0
BBX 21 21 2 -1
BITMAP
003FE0
00FFE0
0183E0
0301E0
0203C0
0606C0
0604C0
070CC0
0719C0
0611C0
0031C0
0061C0
00C180
00FF80
018180
030180
060380
1C0380
F80380
F003F8
000300
ENDCHAR

STARTCHAR B
ENCODING 66
SWIDTH 600 0
DWIDTH 19 0
BBX 19 21 2 0
BITMAP
001800
01FF80
07F1E0
1C70E0
3870E0
3070E0
6060E0
6060C0
E0E380
E0E700
E0FF80
E0C3C0
01C1E0
01C0E0
0180E0
0180E0
0301C0
030180
060300
3E1E00
3FF800
ENDCHAR

STARTCHAR C
ENCODING 67
SWIDTH 520 0
DWIDTH 17 0
BBX 18 22 3 -3
BITMAP
001F80
00F7C0
01C1C0
0300C0
060000
0C0000
180000
180000
380000
300000
700000
600000
600000
E00000
E00000
E00000
E00000
F00600
F00E00
783C00
3FF000
1F0000
ENDCHAR

STARTCHAR D
ENCODING 68
SWIDTH 700 0
DWIDTH 23 0
BBX 22 20 3 0
BITMAP
00FF00
07F1E0
0E7078
187038
30601C
60601C
60E01C
E0E01C
E0E01C
E0C01C
C0C018
01C038
018030
018030
038060
0300E0
0601C0
0E0700
7FFE00
7FE000
ENDCHAR

STARTCHAR E
ENCODING 69
SWIDTH 620 0
DWIDTH 20 0
BBX 20 20 2 0
BITMAP
03FFF0
1F3070
187030
307000
607000
E06000
E0E000
E0E000
E0E000
40E000
01FF00
01C000
01C000
018000
038000
038010
030030
060030
0C0060
3FFFC0
ENDCHAR

STARTCHAR F
ENCODING 70
SWIDTH 580 0
DWIDTH 19 0
BBX 21 25 3 -4
BITMAP
000018
03FFF0
071800
0C3800
183800
183800
183000
383000
387000
387000
386000
107F00
00F800
00E000
00E000
00C000
00C000
01C000
018000
018000
018000
030000
0E0000
FC0000
F00000
ENDCHAR

STARTCHAR G
ENCODING 71
SWIDTH 620 0
DWIDTH 20 0
BBX 18 27 4 -7
BITMAP
007F80
01E7C0
0383C0
060180
0C0180
180000
180000
380000
300000
700000
600000
60FF80
E0C600
E00E00
E00E00
E00C00
F00C00
703C00
7CFC00
3F9800
001800
003800
003000
006000
00C000
1F8000
3E0000
ENDCHAR

STARTCHAR H
ENCODING 72
SWIDTH 680 0
DWIDTH 22 0
BBX 28 24 2 0
BITMAP
00000070
000001F0
00000380
00000600
01FC0600
07980C00
06380C00
0C380C00
18301C00
18301800
18301800
1C703800
18703800
007FF000
00603000
00E03000
00C07000
00C07000
01C06000
01806000
0300E000
0600E000
FC00FC00
F800F800
ENDCHAR

STARTCHAR I
ENCODING 73
SWIDTH 380 0
DWIDTH 12 0
BBX 12 20 3 0
BITMAP
07F0
01C0
0180
0380
0380
0380
0380
0300
0700
0700
0700
0600
0E00
0E00
0E00
0C00
1C00
1C00
1C00
FF00
ENDCHAR

STARTCHAR J
ENCODING 74
SWIDTH 400 0
DWIDTH 13 0
BBX 15 24 1 -4
BITMAP
007E
00EC
018C
031C
031C
0718
0718
0738
0638
0030
0070
0030
0070
0070
0060
0060
00E0
00C0
00C0
0180
0300
0600
FC00
F000
ENDCHAR

STARTCHAR K
ENCODING 75
SWIDTH 660 0
DWIDTH 21 0
BBX 25 25 4 -5
BITMAP
07F80E00
1E303E00
38707600
3070C000
60738000
60670000
70EE0000
70FC0000
70F80000
00F80000
00DC0000
01DC0000
019C0000
018E0000
030E0000
030E0000
06070000
0C070000
1D870000
FF038000
00038000
0001C000
0000E100
00007380
00001F00
ENDCHAR

STARTCHAR L
ENCODING 76
SWIDTH 580 0
DWIDTH 19 0
BBX 20 20 1 0
BITMAP
000F00
003F00
003000
006000
00C000
00C000
01C000
018000
018000
038000
038000
038000
030000
030000
070030
060030
060060
0C0060
1FFFC0
FFFF80
ENDCHAR

STARTCHAR M
ENCODING 77
SWIDTH 840 0
DWIDTH 27 0
BBX 30 23 3 0
BITMAP
0000000C
0000003C
00000060
03F800C0
0FF801C0
1C3803C0
30380780
30780780
60580F80
60581B80
60581B00
70D83300
709C6700
609C4700
009CC600
019D8600
010D0E00
010F0E00
030E0E00
060E0C00
060C1C00
FC081E00
F0001FE0
ENDCHAR

STARTCHAR N
ENCODING 78
SWIDTH 700 0
DWIDTH 23 0
BBX 28 29 2 -5
BITMAP
00000030
000000F0
000001C0
00000300
03F00200
0FF80600
1C380600
30380400
20380C00
607C0C00
605C0800
704C0800
704C1800
70CE1800
00CE1000
00861000
00871000
01873000
01073000
0303A000
0303A000
0601E000
FC01E000
F000E000
0000E000
00007000
00003810
00001C30
000007E0
ENDCHAR

STARTCHAR O
ENCODING 79
SWIDTH 600 0
DWIDTH 19 0
BBX 19 20 4 0
BITMAP
00FF00
03CF80
0703C0
0C01E0
1801E0
3800E0
3000E0
7000E0
6000E0
6000E0
E000C0
E001C0
E001C0
E00180
E00380
F00300
700600
781C00
3E7800
1FE000
ENDCHAR

STARTCHAR P
ENCODING 80
SWIDTH 540 0
DWIDTH 17 0
BBX 20 20 2 0
BITMAP
00FFC0
07F1E0
1C70F0
386070
30E070
60E070
60E0E0
E0C0E0
E0C1C0
E1C380
E1FE00
01F000
018000
038000
038000
038000
030000
070000
071C00
FFFC00
ENDCHAR

STARTCHAR Q
ENCODING 81
SWIDTH 600 0
DWIDTH 19 0
BBX 25 27 3 -7
BITMAP
007F0000
03CF8000
0703C000
0C01C000
1801E000
3800E000
3000E000
7000E000
6000E000
6000E000
E000C000
E001C000
E001C000
E0018000
E0038000
F0030000
70060000
781C0000
3EF80000
1FE00000
00780000
003C0000
001E0180
000F8180
0007E300
0003FE00
0000F800
ENDCHAR

STARTCHAR R
ENCODING 82
SWIDTH 600 0
DWIDTH 19 0
BBX 25 25 2 -5
BITMAP
00FF8000
07F1C000
0E70E000
1870E000
3060E000
3060C000
70E1C000
70E38000
70EE0000
70FC0000
61D80000
01DC0000
01DC0000
018C0000
038E0000
030E0000
060E0000
0E070000
1C070000
FF870000
00038000
00038000
0001C180
0000E380
00003F00
ENDCHAR

STARTCHAR S
ENCODING 83
SWIDTH 460 0
DWIDTH 15 0
BBX 17 22 0 -2
BITMAP
000700
003F80
007380
00C180
008000
018000
018000
01C000
01E000
00F000
007800
003C00
001E00
000E00
000E00
000600
400E00
600C00
E01800
F87000
7FE000
1E0000
ENDCHAR

STARTCHAR T
ENCODING 84
SWIDTH 500 0
DWIDTH 16 0
BBX 22 22 2 0
BITMAP
000004
00000C
07FFF8
1C0C70
301C00
601C00
601C00
E01800
E01800
E03800
E03800
E03000
003000
003000
007000
006000
006000
006000
00C000
018000
038E00
0FF800
ENDCHAR

STARTCHAR U
ENCODING 85
SWIDTH 740 0
DWIDTH 24 0
BBX 22 20 4 0
BITMAP
07F03C
1FF01C
386018
204038
60C038
C08038
E18030
E10030
E30070
630070
060060
060060
0600E0
0E00E0
0E00E0
0E00E0
0E03C0
0F0FC0
07FDF8
03C1E0
ENDCHAR

STARTCHAR V
ENCODING 86
SWIDTH 640 0
DWIDTH 21 0
BBX 24 24 3 0
BITMAP
000006
00000F
000007
000007
0FF007
1CE006
30E00E
60E00C
60C018
E0C018
E0C030
E1C060
E1C0C0
41C1C0
01C180
01C300
018600
018C00
019800
03B000
03E000
03C000
038000
030000
ENDCHAR

STARTCHAR W
ENCODING 87
SWIDTH 880 0
DWIDTH 28 0
BBX 31 25 4 -1
BITMAP
0000000C
0000001E
0000001E
0000000E
0FF0300E
38E0700C
60E0700C
60C0F00C
C0C1F018
C1C1F018
C1C37030
E1C27020
E1C67060
C18C6040
018C60C0
01986180
03906300
03B06300
03E06600
03E06C00
03C07800
03807800
03807000
07006000
0600C000
ENDCHAR

STARTCHAR X
ENCODING 88
SWIDTH 560 0
DWIDTH 18 0
BBX 22 20 0 0
BITMAP
00F03C
03F07C
0070F8
007180
003180
003B00
003E00
003E00
003C00
001800
003800
003C00
007C00
00CC00
018E00
030E00
060E00
7C0700
F807F0
F00780
ENDCHAR

STARTCHAR Y
ENCODING 89
SWIDTH 560 0
DWIDTH 18 0
BBX 24 26 1 -5
BITMAP
000007
01E00F
0FF01E
1C7830
183860
301C60
601CC0
601C80
601D80
700D00
700F00
600E00
000E00
000C00
000C00
000800
001800
001000
003000
002000
006000
004000
00C000
078000
FF0000
FC0000
ENDCHAR

STARTCHAR Z
ENCODING 90
SWIDTH 620 0
DWIDTH 20 0
BBX 20 20 2 0
BITMAP
03E060
03FFE0
07FFC0
040180
0C0300
080600
080C00
001800
003000
006000
00C000
018030
030070
060070
0C0030
180030
300060
7FF1C0
FFFF80
CFFF00
ENDCHAR

STARTCHAR bracketleft
ENCODING 91
SWIDTH 240 0
DWIDTH 8 0
BBX 11 28 2 -6
BITMAP
01E0
0180
0300
0300
0300
0300
0600
0600
0600
0600
0C00
0C00
0C00
0C00
1800
1800
1800
1800
3000
3000
3000
3000
6000
6000
6000
6000
E000
F800
ENDCHAR

STARTCHAR backslash
ENCODING 92
SWIDTH 480 0
DWIDTH 16 0
BBX 10 20 6 0
BITMAP
C000
6000
6000
6000
3000
3000
1800
1800
1800
0C00
0C00
0600
0600
0600
0300
0300
0180
0180
0180
00C0
ENDCHAR

STARTCHAR bracketright
ENCODING 93
SWIDTH 320 0
DWIDTH 11 0
BBX 11 28 2 -6
BITMAP
03E0
00E0
00C0
00C0
00C0
00C0
0180
0180
0180
0180
0300
0300
0300
0300
0600
0600
0600
0600
0C00
0C00
0C00
0C00
1800
1800
1800
1800
3000
F000
ENDCHAR

STARTCHAR asciicircum
ENCODING 94
SWIDTH 520 0
DWIDTH 17 0
BBX 8 8 7 15
BITMAP
18
1C
3C
36
66
63
43
C1
ENDCHAR

STARTCHAR underscore
ENCODING 95
SWIDTH 500 0
DWIDTH 17 0
BBX 17 2 0 -5
BITMAP
FFFF80
FFFF80
ENDCHAR

STARTCHAR quoteleft
ENCODING 96
SWIDTH 240 0
DWIDTH 8 0
BBX 5 8 8 15
BITMAP
18
30
60
40
C0
C0
C0
C0
ENDCHAR

STARTCHAR a
ENCODING 97
SWIDTH 420 0
DWIDTH 13 0
BBX 14 14 2 0
BITMAP
03F0
0FF0
1C70
3860
3060
3060
60E0
60E0
60C0
E1C0
E7DC
EFF8
F9E0
7180
ENDCHAR

STARTCHAR b
ENCODING 98
SWIDTH 420 0
DWIDTH 14 0
BBX 12 23 3 0
BITMAP
0070
01E0
0380
0600
0600
0C00
0C00
0C00
1C00
1CE0
1BF0
1F70
1C70
3870
3870
3060
3060
30E0
70C0
71C0
7300
7F00
FC00
ENDCHAR

STARTCHAR c
ENCODING 99
SWIDTH 340 0
DWIDTH 11 0
BBX 10 14 3 0
BITMAP
0300
0F80
1980
3100
6000
6000
E000
E000
C000
C040
E1C0
E780
FE00
7000
ENDCHAR

STARTCHAR d
ENCODING 100
SWIDTH 440 0
DWIDTH 14 0
BBX 18 23 3 0
BITMAP
0001C0
0007C0
000E00
000C00
001800
003800
003000
003000
003000
01F000
0FE000
1C6000
306000
30E000
60E000
60C000
E0C000
E1C000
C1C400
C7DC00
EFF800
F9E000
E18000
ENDCHAR

STARTCHAR e
ENCODING 101
SWIDTH 340 0
DWIDTH 11 0
BBX 10 14 3 0
BITMAP
0F80
1F80
3180
3380
6300
6600
FC00
F800
E000
C0C0
E1C0
E380
FE00
7800
ENDCHAR

STARTCHAR f
ENCODING 102
SWIDTH 320 0
DWIDTH 10 0
BBX 21 30 -3 -7
BITMAP
000078
0001F0
000300
000600
000600
000C00
000C00
001C00
001C00
001800
001800
003800
03FF00
023000
003000
007000
007000
006000
006000
00E000
00E000
00C000
01C000
018000
018000
030000
030000
060000
7C0000
F00000
ENDCHAR

STARTCHAR g
ENCODING 103
SWIDTH 400 0
DWIDTH 13 0
BBX 19 22 -3 -7
BITMAP
000020
000FE0
003FE0
0070C0
00C180
00C180
01C300
018300
018300
038F00
039F00
03BE00
03E600
038600
030E00
060E00
1C0C00
301C00
601800
F07000
FFE000
7F0000
ENDCHAR

STARTCHAR h
ENCODING 104
SWIDTH 440 0
DWIDTH 14 0
BBX 15 23 3 0
BITMAP
00F0
03F0
0300
0600
0C00
0C00
1C00
1800
1800
1870
39F0
3770
3E60
3860
70E0
70E0
60C0
60C0
60CE
E0DC
C1F0
C1C0
0080
ENDCHAR

STARTCHAR i
ENCODING 105
SWIDTH 240 0
DWIDTH 8 0
BBX 8 21 2 0
BITMAP
02
07
07
06
00
00
00
06
1C
FC
DC
1C
18
38
38
30
30
73
7E
78
60
ENDCHAR

STARTCHAR j
ENCODING 106
SWIDTH 220 0
DWIDTH 7 0
BBX 14 28 -4 -7
BITMAP
0008
001C
001C
0008
0000
0000
0000
0018
0070
01F0
01B0
0070
0070
0060
0060
00E0
00E0
00C0
00C0
00C0
01C0
0180
0300
0300
0600
0E00
7C00
F000
ENDCHAR

STARTCHAR k
ENCODING 107
SWIDTH 440 0
DWIDTH 14 0
BBX 19 28 3 -5
BITMAP
007000
01F000
038000
060000
0E0000
0C0000
0C0000
1C0000
1C0000
183C00
187800
18C800
3B8000
370000
360000
3E0000
760000
770000
630000
638000
638000
E1C000
81C000
00E000
007000
007060
001CE0
0007C0
ENDCHAR

STARTCHAR l
ENCODING 108
SWIDTH 240 0
DWIDTH 8 0
BBX 11 23 3 0
BITMAP
00E0
03E0
0300
0E00
0C00
0C00
1C00
1800
1800
1800
3800
3000
3000
3000
7000
7000
6000
6000
6300
EF00
FC00
F000
4000
ENDCHAR

STARTCHAR m
ENCODING 109
SWIDTH 620 0
DWIDTH 20 0
BBX 20 14 3 0
BITMAP
0410C0
1C73C0
FDFFC0
DF7D80
1E7180
186180
386380
30C300
30C300
30C330
70C370
61C3E0
618700
000200
ENDCHAR

STARTCHAR n
ENCODING 110
SWIDTH 460 0
DWIDTH 15 0
BBX 14 14 3 0
BITMAP
0030
1CF0
FDF0
DF60
1E60
1860
3860
30C0
30C0
30CC
70DC
60F0
60C0
0080
ENDCHAR

STARTCHAR o
ENCODING 111
SWIDTH 400 0
DWIDTH 13 0
BBX 12 14 3 0
BITMAP
07E0
0EF0
1C70
3070
3070
6060
6060
6060
E0C0
E0C0
E180
F300
7E00
3800
ENDCHAR

STARTCHAR p
ENCODING 112
SWIDTH 440 0
DWIDTH 14 0
BBX 15 21 1 -7
BITMAP
031E
0F3E
3FEE
2786
0706
0E06
0E0E
0C0C
0C0C
0C18
1C18
1C70
1FE0
1F80
1800
3800
3800
3000
3000
7000
FC00
ENDCHAR

STARTCHAR q
ENCODING 113
SWIDTH 400 0
DWIDTH 13 0
BBX 13 23 3 -7
BITMAP
0018
0030
03F0
0FF0
1860
3060
6060
60E0
60C0
E0C0
C0C0
C3C0
C7C0
EF80
F980
E180
0380
0380
0300
0300
0700
0700
3FC0
ENDCHAR

STARTCHAR r
ENCODING 114
SWIDTH 300 0
DWIDTH 10 0
BBX 11 14 3 0
BITMAP
1CE0
7FE0
DE40
1C00
1800
3800
3800
3000
3000
3000
7000
6000
6000
4000
ENDCHAR

STARTCHAR s
ENCODING 115
SWIDTH 320 0
DWIDTH 10 0
BBX 10 14 2 0
BITMAP
07C0
0FC0
0C00
1800
1800
1C00
1F00
0F80
0380
0380
C100
C300
EE00
FC00
ENDCHAR

STARTCHAR t
ENCODING 116
SWIDTH 320 0
DWIDTH 10 0
BBX 8 16 4 0
BITMAP
0C
1C
18
38
38
FF
30
30
70
70
60
63
E7
FE
F0
60
ENDCHAR

STARTCHAR u
ENCODING 117
SWIDTH 460 0
DWIDTH 15 0
BBX 16 14 2 0
BITMAP
0400
1C38
FC38
D830
1830
1830
3870
3060
3060
30E0
73E7
77FC
7CF0
70C0
ENDCHAR

STARTCHAR v
ENCODING 118
SWIDTH 440 0
DWIDTH 14 0
BBX 14 15 3 0
BITMAP
000C
019C
7F9C
7F0C
C60C
CC18
8C18
1810
1830
3020
3060
30C0
3B80
3F00
3C00
ENDCHAR

STARTCHAR w
ENCODING 119
SWIDTH 680 0
DWIDTH 22 0
BBX 22 15 3 0
BITMAP
00001C
00801C
3FCC1C
7F8C1C
630C18
C61C18
841818
0C1830
183820
187860
18F0C0
39F1C0
3BB380
3E3F00
1C3800
ENDCHAR

STARTCHAR x
ENCODING 120
SWIDTH 420 0
DWIDTH 14 0
BBX 17 19 2 -5
BITMAP
0E0E00
3E1E00
6E3C00
476000
03C000
038000
030000
070000
0F0000
1B8000
738000
638000
E18000
C18000
41C000
01C000
00C000
006380
003F00
ENDCHAR

STARTCHAR y
ENCODING 121
SWIDTH 400 0
DWIDTH 13 0
BBX 15 21 0 -7
BITMAP
0302
0F0E
3F0E
360E
060C
060C
0E1C
0C1C
0C18
0C38
1CF8
1DF8
1F30
1C30
0030
0070
0060
00C0
01C0
7F00
FE00
ENDCHAR

STARTCHAR z
ENCODING 122
SWIDTH 440 0
DWIDTH 14 0
BBX 14 14 2 0
BITMAP
0004
07FC
0FF8
0870
18E0
09C0
0380
0600
0C0C
180C
380C
FF18
DFF0
03C0
ENDCHAR

STARTCHAR braceleft
ENCODING 123
SWIDTH 240 0
DWIDTH 8 0
BBX 10 30 3 -7
BITMAP
00C0
01C0
0300
0300
0600
0600
0600
0C00
0C00
0C00
0C00
1800
1800
7000
E000
7000
3000
3000
3000
7000
6000
6000
6000
6000
C000
C000
C000
C000
6000
2000
ENDCHAR

STARTCHAR bar
ENCODING 124
SWIDTH 520 0
DWIDTH 17 0
BBX 2 20 10 0
BITMAP
C0
C0
C0
C0
C0
C0
C0
C0
C0
C0
C0
C0
C0
C0
C0
C0
C0
C0
C0
C0
ENDCHAR

STARTCHAR braceright
ENCODING 125
SWIDTH 240 0
DWIDTH 8 0
BBX 10 29 0 -6
BITMAP
0100
0180
00C0
00C0
00C0
00C0
0180
0180
0180
0180
0300
0300
0300
0380
01C0
0380
0600
0600
0C00
0C00
0C00
0C00
1800
1800
1800
3800
3000
E000
C000
ENDCHAR

STARTCHAR asciitilde
ENCODING 126
SWIDTH 520 0
DWIDTH 17 0
BBX 13 4 4 5
BITMAP
3808
FF18
C3F8
8060
ENDCHAR

STARTCHAR exclamdown
ENCODING 161
SWIDTH 280 0
DWIDTH 9 0
BBX 8 19 2 -6
BITMAP
06
0F
06
00
00
04
0C
0C
18
18
18
38
30
30
70
70
60
60
C0
ENDCHAR

STARTCHAR cent
ENCODING 162
SWIDTH 440 0
DWIDTH 15 0
BBX 10 24 4 -2
BITMAP
0100
0100
0100
0100
0300
07C0
1EC0
1AC0
3600
6600
6400
6400
C400
CC00
C800
C800
E980
FB80
FF00
7800
1000
1000
3000
2000
ENDCHAR

STARTCHAR sterling
ENCODING 163
SWIDTH 440 0
DWIDTH 15 0
BBX 14 22 0 -2
BITMAP
001C
007C
00E0
00C0
0180
0180
0300
0300
0300
0FE0
0300
0600
0600
0600
0604
040C
0C0C
1C18
3FF0
7FF0
C000
8000
ENDCHAR

STARTCHAR currency
ENCODING 164
SWIDTH 440 0
DWIDTH 15 0
BBX 14 14 2 4
BITMAP
CFC8
FFFC
7878
6018
E01C
C00C
C00C
C00C
C00C
E01C
6018
7878
FFFC
4FC8
ENDCHAR

STARTCHAR yen
ENCODING 165
SWIDTH 440 0
DWIDTH 15 0
BBX 21 20 -1 0
BITMAP
1F0078
3F81F8
E7C390
81C600
01CC00
00DC00
00D800
00F000
00F000
00FF00
1FC000
00C000
01C000
3FFE00
018000
018000
038000
038000
038000
0FE000
ENDCHAR

STARTCHAR brokenbar
ENCODING 166
SWIDTH 520 0
DWIDTH 17 0
BBX 2 20 10 0
BITMAP
C0
C0
C0
C0
C0
C0
C0
00
00
00
00
00
00
C0
C0
C0
C0
C0
C0
C0
ENDCHAR

STARTCHAR section
ENCODING 167
SWIDTH 420 0
DWIDTH 14 0
BBX 13 26 2 -6
BITMAP
0038
00F8
0198
0100
0700
0700
0F00
1B80
1380
33C0
31E0
38E0
3870
3C70
1E30
0E30
0F20
07E0
03C0
03C0
0180
0180
0300
4700
FE00
F800
ENDCHAR

STARTCHAR dieresis
ENCODING 168
SWIDTH 360 0
DWIDTH 12 0
BBX 8 4 6 16
BITMAP
42
E7
E7
46
ENDCHAR

STARTCHAR copyright
ENCODING 169
SWIDTH 740 0
DWIDTH 25 0
BBX 23 23 5 0
BITMAP
00FE00
038780
0E00C0
180070
300010
207E18
61C70C
410104
C30106
860106
860002
860002
860002
860002
860006
C30106
438304
61CF0C
307C18
180030
0C00E0
0787C0
01FE00
ENDCHAR

STARTCHAR ordfeminine
ENCODING 170
SWIDTH 260 0
DWIDTH 9 0
BBX 7 12 3 8
BITMAP
3C
34
24
64
4C
5E
7E
7E
00
00
00
FC
ENDCHAR

STARTCHAR guillemotleft
ENCODING 171
SWIDTH 340 0
DWIDTH 11 0
BBX 10 14 3 0
BITMAP
0440
0CC0
0CC0
1980
3300
6600
CC00
CC00
CC00
6600
6600
6600
6600
2200
ENDCHAR

STARTCHAR logicalnot
ENCODING 172
SWIDTH 520 0
DWIDTH 17 0
BBX 17 9 2 1
BITMAP
FFFF80
FFFF80
000180
000180
000180
000180
000180
000180
000180
ENDCHAR

STARTCHAR hyphen
ENCODING 173
SWIDTH 280 0
DWIDTH 9 0
BBX 5 2 5 6
BITMAP
F8
F0
ENDCHAR

STARTCHAR registered
ENCODING 174
SWIDTH 740 0
DWIDTH 25 0
BBX 23 23 5 0
BITMAP
00FE00
038780
0E00C0
180070
300010
23FC18
608E0C
408204
C08206
808606
809E02
80FC02
809802
808C02
C08406
408604
40820C
63E388
300018
180030
0C00E0
078380
00FE00
ENDCHAR

STARTCHAR macron
ENCODING 175
SWIDTH 440 0
DWIDTH 15 0
BBX 9 2 7 18
BITMAP
FF80
FF80
ENDCHAR

STARTCHAR degree
ENCODING 176
SWIDTH 400 0
DWIDTH 13 0
BBX 8 9 6 11
BITMAP
3C
66
C3
81
81
81
C3
66
3C
ENDCHAR

STARTCHAR plusminus
ENCODING 177
SWIDTH 520 0
DWIDTH 17 0
BBX 14 14 3 0
BITMAP
0300
0300
0300
0300
0300
FFFC
FFFC
0300
0300
0300
0300
0000
FFFC
FFFC
ENDCHAR

STARTCHAR twosuperior
ENCODING 178
SWIDTH 264 0
DWIDTH 9 0
BBX 11 13 2 7
BITMAP
0F80
1DC0
18C0
10C0
0180
0380
0700
0E00
1C00
38E0
7CC0
FF80
C000
ENDCHAR

STARTCHAR threesuperior
ENCODING 179
SWIDTH 264 0
DWIDTH 9 0
BBX 10 13 2 7
BITMAP
07C0
06C0
01C0
0380
0700
0F00
0380
0180
0180
0300
0700
CE00
FC00
ENDCHAR

STARTCHAR acute
ENCODING 180
SWIDTH 300 0
DWIDTH 10 0
BBX 6 6 7 15
BITMAP
0C
18
30
70
60
C0
ENDCHAR

STARTCHAR mu
ENCODING 181
SWIDTH 460 0
DWIDTH 15 0
BBX 17 21 1 -7
BITMAP
030000
0E0E00
3E0C00
2E1C00
0E1C00
0C1800
0C1800
0C3800
1C3800
1C7980
19F380
1FBF00
3E3800
382000
300000
700000
600000
600000
600000
E00000
C00000
ENDCHAR

STARTCHAR paragraph
ENCODING 182
SWIDTH 500 0
DWIDTH 16 0
BBX 21 28 1 -7
BITMAP
000038
00FFF0
03FE00
07FE00
07FE00
07FE00
0FFC00
0FFC00
0FFC00
0FFC00
07F800
03F800
01F800
007800
003000
003000
003000
007000
006000
006000
006000
00E000
00C000
018000
018000
630000
FE0000
780000
ENDCHAR

STARTCHAR periodcentered
ENCODING 183
SWIDTH 220 0
DWIDTH 7 0
BBX 4 3 4 6
BITMAP
60
F0
60
ENDCHAR

STARTCHAR cedilla
ENCODING 184
SWIDTH 300 0
DWIDTH 10 0
BBX 6 6 1 -6
BITMAP
1C
38
30
30
70
E0
ENDCHAR

STARTCHAR onesuperior
ENCODING 185
SWIDTH 264 0
DWIDTH 9 0
BBX 7 12 3 7
BITMAP
0E
1E
06
04
04
0C
0C
0C
08
18
18
FE
ENDCHAR

STARTCHAR ordmasculine
ENCODING 186
SWIDTH 260 0
DWIDTH 9 0
BBX 8 12 3 8
BITMAP
1F
3F
33
61
63
43
46
7E
7C
00
00
FC
ENDCHAR

STARTCHAR guillemotright
ENCODING 187
SWIDTH 380 0
DWIDTH 13 0
BBX 11 13 2 0
BITMAP
1980
0CC0
0CC0
0CC0
0EE0
0660
0660
0CC0
1980
3300
6600
E600
C400
ENDCHAR

STARTCHAR onequarter
ENCODING 188
SWIDTH 660 0
DWIDTH 22 0
BBX 19 20 3 0
BITMAP
000100
0E0300
1E0300
060600
060400
040C00
0C0800
0C1800
0C3000
0830E0
0861C0
1843C0
FEC7C0
018EC0
018C80
031880
023FC0
060180
0C0180
080380
ENDCHAR

STARTCHAR onehalf
ENCODING 189
SWIDTH 660 0
DWIDTH 22 0
BBX 20 22 3 -2
BITMAP
000100
1E0300
3E0200
040600
0C0C00
0C0800
0C1800
083000
1837C0
186EE0
186C60
18C860
FF80C0
0181C0
030380
030700
060E00
041C70
0C7E60
08F3C0
00E000
008000
ENDCHAR

STARTCHAR threequarters
ENCODING 190
SWIDTH 660 0
DWIDTH 22 0
BBX 19 20 3 0
BITMAP
0F8080
0D8180
018100
030300
070600
1F0E00
138C00
019800
019800
033060
0730E0
CE61E0
FCC3E0
00C740
018EC0
019CC0
031FE0
020080
060180
040180
ENDCHAR

STARTCHAR questiondown
ENCODING 191
SWIDTH 400 0
DWIDTH 13 0
BBX 12 19 2 -6
BITMAP
0060
00F0
0060
0000
0000
0040
0040
0040
00C0
03C0
1F80
3800
7000
6000
E000
E000
E180
7300
3E00
ENDCHAR

STARTCHAR Agrave
ENCODING 192
SWIDTH 620 0
DWIDTH 21 0
BBX 21 28 2 -1
BITMAP
000300
000100
000180
000080
000080
0000C0
000000
003FE0
00FFE0
0183E0
0301E0
0203C0
0606C0
0604C0
070CC0
0719C0
0611C0
0031C0
0061C0
00C180
00FF80
018180
030180
060380
1C0380
F80380
F003F8
000300
ENDCHAR

STARTCHAR Aacute
ENCODING 193
SWIDTH 620 0
DWIDTH 21 0
BBX 21 28 2 -1
BITMAP
000030
000060
0000C0
0001C0
000180
000300
000000
003FE0
00FFE0
0183E0
0301E0
0203C0
0606C0
0604C0
070CC0
0719C0
0611C0
0031C0
0061C0
00C180
00FF80
018180
030180
060380
1C0380
F80380
F003F8
000300
ENDCHAR

STARTCHAR Acircumflex
ENCODING 194
SWIDTH 620 0
DWIDTH 21 0
BBX 21 28 2 -1
BITMAP
000060
0000E0
0001E0
000360
000E20
000C20
000000
003FE0
00FFE0
0183E0
0301E0
0203C0
0606C0
0604C0
070CC0
0719C0
0611C0
0031C0
0061C0
00C180
00FF80
018180
030180
060380
1C0380
F80380
F003F8
000300
ENDCHAR

STARTCHAR Atilde
ENCODING 195
SWIDTH 620 0
DWIDTH 21 0
BBX 23 27 2 -1
BITMAP
0003C6
0007FE
000C78
000800
000000
000000
003FE0
00FFE0
0183E0
0301E0
0203C0
0606C0
0604C0
070CC0
0719C0
0611C0
0031C0
0061C0
00C180
00FF80
018180
030180
060380
1C0380
F80380
F003F8
000300
ENDCHAR

STARTCHAR Adieresis
ENCODING 196
SWIDTH 620 0
DWIDTH 21 0
BBX 21 27 2 -1
BITMAP
000210
000738
000738
000230
000000
000000
003FE0
00FFE0
0183E0
0301E0
0203C0
0606C0
0604C0
070CC0
0719C0
0611C0
0031C0
0061C0
00C180
00FF80
018180
030180
060380
1C0380
F80380
F003F8
000300
ENDCHAR

STARTCHAR Aring
ENCODING 197
SWIDTH 620 0
DWIDTH 21 0
BBX 21 28 2 -1
BITMAP
0000F0
0000D8
000198
000118
0001B0
0001E0
000000
003FE0
00FFE0
0183E0
0301E0
0203C0
0606C0
0604C0
070CC0
0719C0
0611C0
0031C0
0061C0
00C180
00FF80
018180
030180
060380
1C0380
F80380
F003F8
000300
ENDCHAR

STARTCHAR AE
ENCODING 198
SWIDTH 740 0
DWIDTH 25 0
BBX 25 20 1 0
BITMAP
000FFF80
00038380
00078300
000F8000
001B8000
001B8000
00330000
00630000
00C70000
00870000
01FFF000
03060000
06060000
0C0E0000
0C0E0080
180C0180
300C0300
701C0700
E01C0E00
E07FFE00
ENDCHAR

STARTCHAR Ccedilla
ENCODING 199
SWIDTH 520 0
DWIDTH 17 0
BBX 18 26 3 -7
BITMAP
001F80
00F7C0
01C1C0
0300C0
060000
0C0000
180000
180000
380000
300000
700000
600000
600000
E00000
E00000
E00000
E00000
F00600
F00E00
783C00
3FF000
1F8000
070000
060000
0E0000
1C0000
ENDCHAR

STARTCHAR Egrave
ENCODING 200
SWIDTH 620 0
DWIDTH 21 0
BBX 20 27 2 0
BITMAP
000C00
000400
000600
000200
000200
000300
000000
03FFF0
1F3070
187030
307000
607000
E06000
E0E000
E0E000
E0E000
40E000
01FF00
01C000
01C000
018000
038000
038010
030030
060030
0C0060
3FFFC0
ENDCHAR

STARTCHAR Eacute
ENCODING 201
SWIDTH 620 0
DWIDTH 21 0
BBX 20 27 2 0
BITMAP
000030
000060
0000C0
0001C0
000180
000300
000000
03FFF0
1F3070
187030
307000
607000
E06000
E0E000
E0E000
E0E000
40E000
01FF00
01C000
01C000
018000
038000
038010
030030
060030
0C0060
3FFFC0
ENDCHAR

STARTCHAR Ecircumflex
ENCODING 202
SWIDTH 620 0
DWIDTH 21 0
BBX 20 27 2 0
BITMAP
0000C0
0001C0
0003C0
0006C0
001C40
001840
000000
03FFF0
1F3070
187030
307000
607000
E06000
E0E000
E0E000
E0E000
40E000
01FF00
01C000
01C000
018000
038000
038010
030030
060030
0C0060
3FFFC0
ENDCHAR

STARTCHAR Edieresis
ENCODING 203
SWIDTH 620 0
DWIDTH 21 0
BBX 20 26 2 0
BITMAP
000840
001CE0
001CE0
0008C0
000000
000000
03FFF0
1F3070
187030
307000
607000
E06000
E0E000
E0E000
E0E000
40E000
01FF00
01C000
01C000
018000
038000
038010
030030
060030
0C0060
3FFFC0
ENDCHAR

STARTCHAR Igrave
ENCODING 204
SWIDTH 380 0
DWIDTH 13 0
BBX 12 27 3 0
BITMAP
0180
0080
00C0
0040
0040
0060
0000
07F0
01C0
0180
0380
0380
0380
0380
0300
0700
0700
0700
0600
0E00
0E00
0E00
0C00
1C00
1C00
1C00
FF00
ENDCHAR

STARTCHAR Iacute
ENCODING 205
SWIDTH 380 0
DWIDTH 13 0
BBX 15 27 3 0
BITMAP
0006
000C
0018
0038
0030
0060
0000
07F0
01C0
0180
0380
0380
0380
0380
0300
0700
0700
0700
0600
0E00
0E00
0E00
0C00
1C00
1C00
1C00
FF00
ENDCHAR

STARTCHAR Icircumflex
ENCODING 206
SWIDTH 380 0
DWIDTH 13 0
BBX 13 27 3 0
BITMAP
0018
0038
0078
00D8
0388
0308
0000
07F0
01C0
0180
0380
0380
0380
0380
0300
0700
0700
0700
0600
0E00
0E00
0E00
0C00
1C00
1C00
1C00
FF00
ENDCHAR

STARTCHAR caron
ENCODING 207
SWIDTH 340 0
DWIDTH 11 0
BBX 7 6 8 15
BITMAP
86
CE
DC
F0
E0
C0
ENDCHAR

STARTCHAR Eth
ENCODING 208
SWIDTH 700 0
DWIDTH 23 0
BBX 22 20 3 0
BITMAP
00FF00
07F1E0
0E7078
187038
30601C
60601C
60E01C
E0E01C
E0C01C
E3FC18
C1C018
01C038
018030
018030
038060
0300C0
060180
0C0700
7FFE00
7FE000
ENDCHAR

STARTCHAR Ntilde
ENCODING 209
SWIDTH 700 0
DWIDTH 23 0
BBX 28 31 2 -5
BITMAP
0001E300
0003FF00
00063C30
000400F0
000001C0
00000300
03F00200
0FF80600
1C380600
30380400
20380C00
607C0C00
605C0800
704C0800
704C1800
70CE1800
00CE1000
00861000
00871000
01873000
01073000
0303A000
0303A000
0601E000
FC01E000
F000E000
0000E000
00007000
00003810
00001C30
000007E0
ENDCHAR

STARTCHAR Ograve
ENCODING 210
SWIDTH 600 0
DWIDTH 20 0
BBX 19 27 3 0
BITMAP
001800
000800
000C00
000400
000400
000600
000000
00FF00
03CF80
0703C0
0C01E0
1801E0
3800E0
3000E0
7000E0
6000E0
6000E0
E000C0
E001C0
E001C0
E00180
E00380
F00300
700600
781C00
3E7800
1FE000
ENDCHAR

STARTCHAR Oacute
ENCODING 211
SWIDTH 600 0
DWIDTH 20 0
BBX 19 27 3 0
BITMAP
0000C0
000180
000300
000700
000600
000C00
000000
00FF00
03CF80
0703C0
0C01E0
1801E0
3800E0
3000E0
7000E0
6000E0
6000E0
E000C0
E001C0
E001C0
E00180
E00380
F00300
700600
781C00
3E7800
1FE000
ENDCHAR

STARTCHAR Ocircumflex
ENCODING 212
SWIDTH 600 0
DWIDTH 20 0
BBX 19 27 3 0
BITMAP
000180
000380
000780
000D80
003880
003080
000000
00FF00
03CF80
0703C0
0C01E0
1801E0
3800E0
3000E0
7000E0
6000E0
6000E0
E000C0
E001C0
E001C0
E00180
E00380
F00300
700600
781C00
3E7800
1FE000
ENDCHAR

STARTCHAR Otilde
ENCODING 213
SWIDTH 600 0
DWIDTH 20 0
BBX 20 26 3 0
BITMAP
001E30
003FF0
0063C0
004000
000000
000000
00FF00
03CF80
0703C0
0C01E0
1801E0
3800E0
3000E0
7000E0
6000E0
6000E0
E000C0
E001C0
E001C0
E00180
E00380
F00300
700600
781C00
3E7800
1FE000
ENDCHAR

STARTCHAR Odieresis
ENCODING 214
SWIDTH 600 0
DWIDTH 20 0
BBX 19 26 3 0
BITMAP
000840
001CE0
001CE0
0008C0
000000
000000
00FF00
03CF80
0703C0
0C01E0
1801E0
3800E0
3000E0
7000E0
6000E0
6000E0
E000C0
E001C0
E001C0
E00180
E00380
F00300
700600
781C00
3E7800
1FE000
ENDCHAR

STARTCHAR multiply
ENCODING 215
SWIDTH 520 0
DWIDTH 17 0
BBX 12 12 4 1
BITMAP
C030
E070
70E0
39C0
1F80
0F00
0F00
1F80
39C0
70E0
E070
C030
ENDCHAR

STARTCHAR Oslash
ENCODING 216
SWIDTH 660 0
DWIDTH 22 0
BBX 21 26 3 -3
BITMAP
000018
000038
000030
007FE0
01E3C0
0381E0
0603F0
0C0370
1C0670
180C70
381870
303870
303070
706060
70C0E0
7180E0
7180C0
7301C0
7E0180
3C0300
3C0E00
1F3C00
3FF000
600000
600000
C00000
ENDCHAR

STARTCHAR Ugrave
ENCODING 217
SWIDTH 740 0
DWIDTH 25 0
BBX 22 27 4 0
BITMAP
000600
000200
000300
000100
000100
000180
000000
07F03C
1FF01C
386018
204038
60C038
C08038
E18030
E10030
E30070
630070
060060
060060
0600E0
0E00E0
0E00E0
0E00E0
0E03C0
0F0FC0
07FDF8
03C1E0
ENDCHAR

STARTCHAR Uacute
ENCODING 218
SWIDTH 740 0
DWIDTH 25 0
BBX 22 27 4 0
BITMAP
000030
000060
0000C0
0001C0
000180
000300
000000
07F03C
1FF01C
386018
204038
60C038
C08038
E18030
E10030
E30070
630070
060060
060060
0600E0
0E00E0
0E00E0
0E00E0
0E03C0
0F0FC0
07FDF8
03C1E0
ENDCHAR

STARTCHAR Ucircumflex
ENCODING 219
SWIDTH 740 0
DWIDTH 25 0
BBX 22 27 4 0
BITMAP
000060
0000E0
0001E0
000360
000E20
000C20
000000
07F03C
1FF01C
386018
204038
60C038
C08038
E18030
E10030
E30070
630070
060060
060060
0600E0
0E00E0
0E00E0
0E00E0
0E03C0
0F0FC0
07FDF8
03C1E0
ENDCHAR

STARTCHAR Udieresis
ENCODING 220
SWIDTH 740 0
DWIDTH 25 0
BBX 22 26 4 0
BITMAP
000210
000738
000738
000230
000000
000000
07F03C
1FF01C
386018
204038
60C038
C08038
E18030
E10030
E30070
630070
060060
060060
0600E0
0E00E0
0E00E0
0E00E0
0E03C0
0F0FC0
07FDF8
03C1E0
ENDCHAR

STARTCHAR Yacute
ENCODING 221
SWIDTH 560 0
DWIDTH 19 0
BBX 24 32 1 -5
BITMAP
000300
000600
000C00
001C00
001800
003000
000007
01E00F
0FF01E
1C7830
183860
301C60
601CC0
601C80
601D80
700D00
700F00
600E00
000E00
000C00
000C00
000800
001800
001000
003000
002000
006000
004000
00C000
078000
FF0000
FC0000
ENDCHAR

STARTCHAR Thorn
ENCODING 222
SWIDTH 540 0
DWIDTH 18 0
BBX 19 20 2 0
BITMAP
01FE00
0F3000
187000
307000
307000
607F80
6061C0
70E0E0
70E0E0
70E0E0
00C0E0
01C1C0
01C180
01C300
019E00
03F800
038000
038000
038C00
FFFC00
ENDCHAR

STARTCHAR germandbls
ENCODING 223
SWIDTH 420 0
DWIDTH 14 0
BBX 21 30 -4 -7
BITMAP
0001F0
0003B8
000618
000C18
000C10
001830
001820
003860
0038C0
003080
007180
007300
007380
0073C0
0061C0
0061E0
00E0E0
00E060
00C040
00C0C0
00C1C0
01DF80
019E00
018000
018000
030000
060000
060000
FC0000
F00000
ENDCHAR

STARTCHAR agrave
ENCODING 224
SWIDTH 420 0
DWIDTH 14 0
BBX 14 21 3 0
BITMAP
0300
0100
0180
0080
0080
00C0
0000
03F0
0FF0
1C70
3860
3060
3060
60E0
60E0
60C0
E1C0
E7DC
EFF8
F9E0
7180
ENDCHAR

STARTCHAR aacute
ENCODING 225
SWIDTH 420 0
DWIDTH 14 0
BBX 14 21 3 0
BITMAP
0030
0060
00C0
01C0
0180
0300
0000
03F0
0FF0
1C70
3860
3060
3060
60E0
60E0
60C0
E1C0
E7DC
EFF8
F9E0
7180
ENDCHAR

STARTCHAR acircumflex
ENCODING 226
SWIDTH 420 0
DWIDTH 14 0
BBX 14 21 3 0
BITMAP
0060
00E0
01E0
0360
0E20
0C20
0000
03F0
0FF0
1C70
3860
3060
3060
60E0
60E0
60C0
E1C0
E7DC
EFF8
F9E0
7180
ENDCHAR

STARTCHAR atilde
ENCODING 227
SWIDTH 420 0
DWIDTH 14 0
BBX 14 20 3 0
BITMAP
078C
0FFC
18F0
1000
0000
0000
03F0
0FF0
1C70
3860
3060
3060
60E0
60E0
60C0
E1C0
E7DC
EFF8
F9E0
7180
ENDCHAR

STARTCHAR adieresis
ENCODING 228
SWIDTH 420 0
DWIDTH 14 0
BBX 14 20 3 0
BITMAP
0420
0E70
0E70
0460
0000
0000
03F0
0FF0
1C70
3860
3060
3060
60E0
60E0
60C0
E1C0
E7DC
EFF8
F9E0
7180
ENDCHAR

STARTCHAR aring
ENCODING 229
SWIDTH 420 0
DWIDTH 14 0
BBX 14 21 3 0
BITMAP
00F0
00D8
0198
0118
01B0
01E0
0000
03F0
0FF0
1C70
3860
3060
3060
60E0
60E0
60C0
E1C0
E7DC
EFF8
F9E0
7180
ENDCHAR

STARTCHAR ae
ENCODING 230
SWIDTH 540 0
DWIDTH 18 0
BBX 17 15 3 0
BITMAP
003000
07FF00
1FFF00
38E300
30E700
60C600
60CC00
E0F800
E1F000
C1C000
C38180
CFC380
FDC700
F1FC00
E0F000
ENDCHAR

STARTCHAR ccedilla
ENCODING 231
SWIDTH 340 0
DWIDTH 11 0
BBX 11 20 2 -6
BITMAP
0180
07C0
0CC0
1880
3000
3000
7000
7000
6000
6020
70E0
73C0
7F00
3800
1C00
3800
3000
3000
7000
E000
ENDCHAR

STARTCHAR egrave
ENCODING 232
SWIDTH 340 0
DWIDTH 11 0
BBX 10 21 3 0
BITMAP
0600
0200
0300
0100
0100
0180
0000
0F80
1F80
3180
3380
6300
6600
FC00
F800
E000
C0C0
E1C0
E380
FE00
7800
ENDCHAR

STARTCHAR eacute
ENCODING 233
SWIDTH 340 0
DWIDTH 11 0
BBX 11 21 3 0
BITMAP
0060
00C0
0180
0380
0300
0600
0000
0F80
1F80
3180
3380
6300
6600
FC00
F800
E000
C0C0
E1C0
E380
FE00
7800
ENDCHAR

STARTCHAR ecircumflex
ENCODING 234
SWIDTH 340 0
DWIDTH 11 0
BBX 10 21 3 0
BITMAP
00C0
01C0
03C0
06C0
1C40
1840
0000
0F80
1F80
3180
3380
6300
6600
FC00
F800
E000
C0C0
E1C0
E380
FE00
7800
ENDCHAR

STARTCHAR edieresis
ENCODING 235
SWIDTH 340 0
DWIDTH 11 0
BBX 11 20 3 0
BITMAP
0840
1CE0
1CE0
08C0
0000
0000
0F80
1F80
3180
3380
6300
6600
FC00
F800
E000
C0C0
E1C0
E380
FE00
7800
ENDCHAR

STARTCHAR igrave
ENCODING 236
SWIDTH 240 0
DWIDTH 8 0
BBX 8 21 2 0
BITMAP
0C
04
06
02
02
03
00
0C
3C
FC
D8
18
18
38
30
30
30
33
7F
78
70
ENDCHAR

STARTCHAR iacute
ENCODING 237
SWIDTH 240 0
DWIDTH 8 0
BBX 10 21 2 0
BITMAP
00C0
0180
0300
0700
0600
0C00
0000
0C00
3C00
FC00
D800
1800
1800
3800
3000
3000
3000
3300
7F00
7800
7000
ENDCHAR

STARTCHAR icircumflex
ENCODING 238
SWIDTH 240 0
DWIDTH 8 0
BBX 9 21 2 0
BITMAP
0180
0380
0780
0D80
3880
3080
0000
0C00
3C00
FC00
D800
1800
1800
3800
3000
3000
3000
3300
7F00
7800
7000
ENDCHAR

STARTCHAR idieresis
ENCODING 239
SWIDTH 240 0
DWIDTH 8 0
BBX 10 20 2 0
BITMAP
1080
39C0
39C0
1180
0000
0000
0C00
3C00
FC00
D800
1800
1800
3800
3000
3000
3000
3300
7F00
7800
7000
ENDCHAR

STARTCHAR eth
ENCODING 240
SWIDTH 400 0
DWIDTH 13 0
BBX 15 23 3 0
BITMAP
01C0
0FE0
0CE6
007C
0070
01F0
0730
0C30
0430
0330
0630
0C30
1830
3030
7070
6060
6060
6040
E0C0
E180
F300
7F00
3800
ENDCHAR

STARTCHAR ntilde
ENCODING 241
SWIDTH 460 0
DWIDTH 15 0
BBX 14 20 3 0
BITMAP
078C
0FFC
18F0
1000
0000
0000
0030
1CF0
FDF0
DF60
1E60
1860
3860
30C0
30C0
30CC
70DC
60F0
60C0
0080
ENDCHAR

STARTCHAR ograve
ENCODING 242
SWIDTH 400 0
DWIDTH 13 0
BBX 12 21 3 0
BITMAP
0300
0100
0180
0080
0080
00C0
0000
07E0
0EF0
1C70
3070
3070
6060
6060
6060
E0C0
E0C0
E180
F300
7E00
3800
ENDCHAR

STARTCHAR oacute
ENCODING 243
SWIDTH 400 0
DWIDTH 13 0
BBX 12 21 3 0
BITMAP
0030
0060
00C0
01C0
0180
0300
0000
07E0
0EF0
1C70
3070
3070
6060
6060
6060
E0C0
E0C0
E180
F300
7E00
3800
ENDCHAR

STARTCHAR ocircumflex
ENCODING 244
SWIDTH 400 0
DWIDTH 13 0
BBX 12 21 3 0
BITMAP
0060
00E0
01E0
0360
0E20
0C20
0000
07E0
0EF0
1C70
3070
3070
6060
6060
6060
E0C0
E0C0
E180
F300
7E00
3800
ENDCHAR

STARTCHAR otilde
ENCODING 245
SWIDTH 400 0
DWIDTH 13 0
BBX 13 20 3 0
BITMAP
0F18
1FF8
31E0
2000
0000
0000
07E0
0EF0
1C70
3070
3070
6060
6060
6060
E0C0
E0C0
E180
F300
7E00
3800
ENDCHAR

STARTCHAR odieresis
ENCODING 246
SWIDTH 400 0
DWIDTH 13 0
BBX 12 20 3 0
BITMAP
0420
0E70
0E70
0460
0000
0000
07E0
0EF0
1C70
3070
3070
6060
6060
6060
E0C0
E0C0
E180
F300
7E00
3800
ENDCHAR

STARTCHAR divide
ENCODING 247
SWIDTH 520 0
DWIDTH 17 0
BBX 14 12 3 1
BITMAP
0300
0380
0300
0000
0000
FFFC
FFFC
0000
0000
0300
0300
0380
ENDCHAR

STARTCHAR oslash
ENCODING 248
SWIDTH 440 0
DWIDTH 15 0
BBX 13 21 3 -3
BITMAP
0018
0030
0030
0060
07E0
0EF0
19F0
31B0
7330
6270
E670
EC60
CC60
D8C0
F9C0
F300
FE00
7800
4000
C000
8000
ENDCHAR

STARTCHAR ugrave
ENCODING 249
SWIDTH 460 0
DWIDTH 15 0
BBX 16 21 2 0
BITMAP
00C0
0040
0060
0020
0020
0030
0000
0400
1C38
FC38
D830
1830
1830
3870
3060
3060
30E0
73E7
77FC
7CF0
70C0
ENDCHAR

STARTCHAR uacute
ENCODING 250
SWIDTH 460 0
DWIDTH 15 0
BBX 16 21 2 0
BITMAP
000C
0018
0030
0070
0060
00C0
0000
0400
1C38
FC38
D830
1830
1830
3870
3060
3060
30E0
73E7
77FC
7CF0
70C0
ENDCHAR

STARTCHAR ucircumflex
ENCODING 251
SWIDTH 460 0
DWIDTH 15 0
BBX 16 21 2 0
BITMAP
0018
0038
0078
00D8
0388
0308
0000
0400
1C38
FC38
D830
1830
1830
3870
3060
3060
30E0
73E7
77FC
7CF0
70C0
ENDCHAR

STARTCHAR udieresis
ENCODING 252
SWIDTH 460 0
DWIDTH 15 0
BBX 16 20 2 0
BITMAP
0108
039C
039C
0118
0000
0000
0400
1C38
FC38
D830
1830
1830
3870
3060
3060
30E0
73E7
77FC
7CF0
70C0
ENDCHAR

STARTCHAR yacute
ENCODING 253
SWIDTH 400 0
DWIDTH 13 0
BBX 15 28 0 -7
BITMAP
0006
000C
0018
0038
0030
0060
0000
0302
0F0E
3F0E
360E
060C
060C
0E1C
0C1C
0C18
0C38
1CF8
1DF8
1F30
1C30
0030
0070
0060
00C0
01C0
7F00
FE00
ENDCHAR

STARTCHAR thorn
ENCODING 254
SWIDTH 440 0
DWIDTH 14 0
BBX 15 30 1 -7
BITMAP
001E
003C
0060
00C0
0180
0380
0380
0300
0300
071E
073E
06EE
0786
0706
0606
0E0E
0C0C
0C0C
0C18
1C18
1C70
1FE0
1F80
1800
3800
3000
3000
3000
7000
FC00
ENDCHAR

STARTCHAR ydieresis
ENCODING 255
SWIDTH 400 0
DWIDTH 13 0
BBX 15 27 0 -7
BITMAP
0084
01CE
01CE
008C
0000
0000
0302
0F0E
3F0E
360E
060C
060C
0E1C
0C1C
0C18
0C38
1CF8
1DF8
1F30
1C30
0030
0070
0060
00C0
01C0
7F00
FE00
ENDCHAR
ENDFONT
